<svg version="1.2" xmlns="http://www.w3.org/2000/svg" viewBox="0 0 200 200" width="200" height="200">
	<title>planet5</title>
	<style>
		.s0 { fill: #b6e8d5 } 
		.s1 { fill: #a7d3c1 } 
		.s2 { fill: #9ac1b0 } 
		.s3 { fill: #8caf9f } 
		.s4 { opacity: .5;fill: #8caf9f } 
		.s5 { fill: #cfffeb } 
		.s6 { fill: #ffffff } 
		.s7 { fill: #7e9b8d } 
	</style>
	<g id="&lt;Group&gt;">
		<g id="&lt;Group&gt;">
			<path id="&lt;Path&gt;" fill-rule="evenodd" class="s0" d="m102.2 170.3c-38.8 0-70.2-31.3-70.2-70.1 0-38.8 31.4-70.2 70.2-70.2 38.8 0 70.1 31.4 70.1 70.2 0 38.8-31.3 70.1-70.1 70.1z"/>
			<path id="&lt;Path&gt;" class="s1" d="m150.8 49.6c-8.1 9.2-23.5 20-51.7 20-28.6 0-42.3-9.1-48.7-16.8-11.5 12.5-18.4 29.1-18.4 47.4 0 38.7 31.4 70.1 70.2 70.1 38.7 0 70.1-31.4 70.1-70.1 0-19.9-8.2-37.9-21.5-50.6z"/>
			<path id="&lt;Path&gt;" class="s2" d="m103.8 120.3c-43.2 0-62.2-19.5-70.5-33.9q-1.3 6.7-1.3 13.8c0 38.7 31.4 70.1 70.2 70.1 38.7 0 70.1-31.4 70.1-70.1q0-3.7-0.3-7.3c-10.4 13-30.5 27.4-68.2 27.4z"/>
		</g>
		<g id="&lt;Group&gt;">
			<path id="&lt;Path&gt;" class="s3" d="m41 63.7c-8 12.5-9.5 26.8-9.8 32-0.4 5.3 0.8 4.5 0.8 4.5 0.4-38.5 31.1-58.4 31.1-58.4-1.2-1.9-14.2 9.3-22.1 21.9z"/>
			<path id="&lt;Path&gt;" class="s3" d="m173.1 94.3c-0.3-5.9-2.3-15.8-6.9-24.9-4.6-9-17.6-26.7-20.6-24.4 0 0 26.6 19.9 26.7 54.3 0 0 1.1 0.9 0.8-5z"/>
		</g>
		<g id="&lt;Group&gt;">
			<path id="&lt;Path&gt;" class="s4" d="m71.9 88.7c5.2-4.3 25.1 1.4 27.4-3.8 2.3-5.3-20.5-21.5-15.9-27.9 4.7-6.5 22.1 0.6 24.2-4.5 2-5.1-15.8-8.8-16.5-12.8-0.6-4.1 1.3-6.5-0.1-6.3 0 0-4.4 2.9-2.3 8.2 2.1 5.3 16.8 5.9 16 9.2-0.9 3.4-22.2-2.2-24.6 6.4-2.5 8.6 17.4 22.2 16.3 26.2-1.2 4-25.3-3.6-27.2 5.7-1.9 9.3 23.2 41.2 20.3 47.1-2.9 5.9-36 0.7-37.7 9.5 0 0 36.3 1.7 39.8-7.6 3.5-9.3-24.8-45.2-19.7-49.4z"/>
			<path id="&lt;Path&gt;" class="s4" d="m112.1 69.9c0.5-6.1 28.6-0.9 30.8-14.8 2.3-13.9-16.9-19.9-16.9-19.9-5 1.3 16.3 7.4 13.3 18.2-3 10.9-26.7 2.4-29.5 15.6-2.9 13.2 34.8 14.6 33 23.3-1.9 8.8-30.3 4.8-33.7 17.7-3.3 12.8 30.3 9.6 28 25.7-2.4 16-29.2 29.6-34.2 30.3-5 0.6-4.3 2.8-4.3 2.8 37.8-0.1 43.3-34.9 43.3-34.9-0.3-12.1-29.7-18.2-28.7-23.6 0.9-5.4 32.2-4.4 33.5-16.3 1.4-12-35.2-18.1-34.6-24.1z"/>
		</g>
		<g id="&lt;Group&gt;" style="opacity: .5">
			<path id="&lt;Path&gt;" class="s5" d="m79.1 92.3c6.6-5 22.8 5.7 28-4.5 5.2-10.2-22.9-23-18.1-28.8 4.9-5.9 17.8 4.8 23.3-6.2 5.5-11.1-17.6-11.4-16.7-14.8 0.8-3.3 1.8-6.2-2.2-6.5 0 0-5 2.2-4 8.4 1 6.2 17 6.3 16.9 11.2-0.2 4.9-22-1.7-25 6.5-3 8.2 19.1 22.1 16.6 26.3-2.5 4.2-24.3-1.8-27.6 5.7-3.4 7.5 24.8 41.2 20.4 48.1-4.4 6.8-37.7 1.8-38.9 8 0 0 0.4 3.4 4.2 6 3.9 2.7 32.2 3.1 39.1-11.7 6.8-14.7-22.7-42.6-16-47.7z"/>
			<path id="&lt;Path&gt;" class="s5" d="m111.1 69.7c1.2-8.7 29.3-4 30.5-16.3 1.2-12.2-15.6-18.2-15.6-18.2-6.5 5 11.4 7.4 9.1 15.4-2.4 8-27.3 4.2-30.3 17.7-3 13.6 30.4 18.1 28.9 25.2-1.5 7-28.9 1.5-30.8 15-1.8 13.6 30.1 17.3 29 27.5-1.1 10.2-21.1 21.4-30.5 25.1-9.4 3.7-2.8 7.7-2.8 7.7 24.1 0.5 39.3-22.1 41.7-32.6 2.3-10.6-29.5-19.1-28.5-26.2 1-7.2 33-5.3 33.8-16 0.7-10.8-35.6-15.6-34.5-24.3z"/>
		</g>
		<g id="&lt;Group&gt;">
			<path id="&lt;Path&gt;" class="s2" d="m127.9 51.8c0 0-5.3 0.2-4.2 2.5 1.2 2.4 6.2-1.3 4.2-2.5z"/>
			<path id="&lt;Path&gt;" class="s2" d="m131.2 51.3c0 0-2.2 0.1-1.4 1.5 0.7 1.4 2.7-0.7 1.4-1.5z"/>
			<path id="&lt;Path&gt;" class="s2" d="m122.7 87.5c-1.3 2.4 6.7 7 8 3.3 0 0-6.6-5.6-8-3.3z"/>
		</g>
		<g id="&lt;Group&gt;" style="opacity: .3">
			<path id="&lt;Path&gt;" class="s6" d="m89 42.7c0 0-18.2-6.2-27.1 11.5-8.8 17.8 11.1 21.8 11.1 21.8 0 0 12.5 4.9 20.6-12.3 8.2-17.2-4.6-21-4.6-21z"/>
			<path id="&lt;Path&gt;" class="s6" d="m53.6 69.5c0 0-7.8-2.7-11.5 4.9-3.8 7.6 4.7 9.3 4.7 9.3 0 0 5.3 2.1 8.8-5.3 3.4-7.3-2-8.9-2-8.9z"/>
			<path id="&lt;Path&gt;" class="s6" d="m67.2 76.5c0 0-4.6-1.6-6.8 2.9-2.2 4.4 2.8 5.4 2.8 5.4 0 0 3.1 1.3 5.2-3.1 2-4.3-1.2-5.2-1.2-5.2z"/>
		</g>
		<path id="&lt;Path&gt;" class="s7" d="m199.9 74.4c-2.4-4.7-30.7 1.8-30.7 1.8l0.5 1.5c44.4-6.4 6.1 16.4-48.7 37.2-10.9 4.1-21.8 7.5-32.1 10.2-7-2.9-14-6.2-20.9-9.7-53.7-27.4-80.4-66.2-28.9-48.5l1-1.8c0 0-34.1-10.2-39.5-6-4.8 3.8 18.9 38.1 81.8 67.7-38.5 9.2-68.8 8.6-69.4 1.6-0.8-9.3 19.8-18.4 19.8-18.4l-0.4-1.7c-49.8 25.9-13.1 37.9 53.9 20.3q8.8 3.9 18.5 7.7c79.7 31.2 108.9 10.7 63.9-13.9l-0.6 1.4c0 0 21.6 9.9 17.7 19.9-3.2 8.5-47 1.9-93-16.9q1.8-0.5 3.6-1c73.3-21.7 105.8-46.7 103.5-51.4z"/>
	</g>
</svg>