<svg version="1.2" xmlns="http://www.w3.org/2000/svg" viewBox="0 0 200 200" width="200" height="200">
	<title>planet8</title>
	<style>
		.s0 { fill: #c3a9c9 } 
		.s1 { fill: #b29cb7 } 
		.s2 { fill: #a190a5 } 
		.s3 { fill: #7c6f8e } 
		.s4 { fill: #d7caf9 } 
		.s5 { fill: #e2c8e8 } 
		.s6 { fill: #908293 } 
	</style>
	<g id="&lt;Group&gt;">
		<g id="&lt;Group&gt;">
			<path id="&lt;Path&gt;" fill-rule="evenodd" class="s0" d="m100.6 199.7c-54.9 0-99.3-44.4-99.3-99.4 0-54.9 44.4-99.3 99.3-99.3 54.9 0 99.3 44.4 99.3 99.3 0 55-44.4 99.4-99.3 99.4z"/>
			<path id="&lt;Path&gt;" class="s1" d="m141.3 9.7c-4.3 20.5-16.9 53.7-54.3 65.5-37 11.7-67 6.6-82.9 1.8-1.8 7.5-2.8 15.3-2.8 23.3 0 54.9 44.5 99.4 99.4 99.4 54.8 0 99.3-44.5 99.3-99.4 0-40.3-24.1-75.1-58.7-90.6z"/>
			<path id="&lt;Path&gt;" class="s2" d="m179.5 39.9c-0.2 22.9-8.3 68.5-66.9 87-58.5 18.5-95-0.4-110.2-11.7 7.1 47.8 48.4 84.5 98.2 84.5 54.9 0 99.3-44.5 99.3-99.4 0-22.7-7.6-43.6-20.4-60.4z"/>
		</g>
		<g id="&lt;Group&gt;" style="opacity: .5">
			<path id="&lt;Path&gt;" class="s3" d="m55.7 46.9c24.1-14.5 24.9-42.6 23-42.5-1.9 0.2 0 24.7-24.4 40.2-24.3 15.5-43.1 15.9-43.1 15.9-1.8 4.7 20.5 1 44.5-13.6z"/>
			<path id="&lt;Path&gt;" class="s3" d="m70.2 45.8c37.7-16.4 90.6-20.4 89.4-23.9-1.2-3.6-61.4 7.8-90.1 20.4-28.7 12.5-66.1 47.2-66.1 47.2 2.8 11.3 29.1-27.3 66.8-43.7z"/>
			<path id="&lt;Path&gt;" class="s3" d="m48.9 97.9c28.2-6 75.1-62.7 69.4-64.5-5.7-1.7-46 55.3-70.9 61.3-24.8 5.9-42.9 1.9-42.9 1.9-3.5 5.8 16.2 7.3 44.4 1.3z"/>
			<path id="&lt;Path&gt;" class="s3" d="m61.5 130.5c53.2-15.7 116.5-90.7 112.9-93.5-3.5-2.9-77.1 81.4-112.9 89.9-35.8 8.6-53.5 3.9-53.5 3.9 0 0 2.3 14.7 53.5-0.3z"/>
			<path id="&lt;Path&gt;" class="s3" d="m96.2 122.7c-33.1 5.3-74.3 34.5-74.3 34.5 3.5 10.3 39.1-22.6 76.8-29.6 37.7-6.9 96-4.6 96.7-10.3 0.7-5.7-66.1 0-99.2 5.4z"/>
			<path id="&lt;Path&gt;" class="s3" d="m105.1 154.7c-30.1 5.6-48.4 32-48.4 32 5.7 9 17.5-21.4 46.5-27.6 28.9-6.2 72.5 6.3 73.7 2.2 1.2-4.1-41.7-12.3-71.8-6.6z"/>
		</g>
		<g id="&lt;Group&gt;" style="opacity: .5">
			<path id="&lt;Path&gt;" class="s4" d="m121 24.9c15.5-2.4 31.5-4.4 31.6-5.5 0.1-1-17.7-0.8-32.9 2.7-15.3 3.5-36.3 9.2-35.1 13.9 0 0 20.9-8.6 36.4-11.1z"/>
			<path id="&lt;Path&gt;" class="s4" d="m110.6 50.4c-1.1-1.1-34.5 39.5-53.1 46.8-18.7 7.3-46.4 5.5-46.4 5.5-2.3 5.1 26.5 2.9 46.7-3.9 20.2-6.8 53.9-47.3 52.8-48.4z"/>
			<path id="&lt;Path&gt;" class="s4" d="m169.1 38.1c-1.5-1.3-67.5 52.9-62.5 58.2 0 0 63.9-56.9 62.5-58.2z"/>
			<path id="&lt;Path&gt;" class="s4" d="m97.5 129.1c-19 3.5-64.7 31.2-64.7 31.2 0.7 4.7 46.4-24.7 64.5-29.3 18.2-4.5 55.8-5 56-6.8 0.1-1.7-36.9 1.5-55.8 4.9z"/>
			<path id="&lt;Path&gt;" class="s4" d="m105.2 160.8c-13.7 2.6-27.3 18.6-27.3 18.6 0.5 6.5 69.7-13.9 69.5-16.1-0.1-2.2-28.4-5.1-42.2-2.5z"/>
		</g>
		<g id="&lt;Group&gt;" style="opacity: .3">
			<path id="&lt;Path&gt;" class="s4" d="m190.4 91.5c-8.8-17.2-43.8 1.3-45.5-5.8-1.7-7.1 33.5-26.3 21.4-42.7-12.1-16.4-38.4-0.6-38.8-7-0.4-6.5 17.1-19.7 1.4-22.5 0 0-36.2 10.6-30.6 32.3 5.7 21.7 35 0.2 39.4 9.3 4.5 9.1-33 31.9-23.4 49.6 9.6 17.6 47-4.1 50.9 2.3 3.9 6.4-19.6 18.9-8.5 30.3 11 11.3 42.6-28.5 33.7-45.8z"/>
			<path id="&lt;Path&gt;" class="s4" d="m79.3 165.4c-1.2-2.6 12.6-11 7-23.1-5.7-12.2-28.6 2.5-29.6 0-1-2.6 16.3-11.1 4.8-17.2 0 0-29.9 8.2-23.5 24.6 6.3 16.3 26.9-0.7 29.8 5.3 2.8 6.1-11.8 14.7-1.8 25.7 9.9 10.9 37.6-9.8 35.2-18.8-2.5-9-20.6 6-21.9 3.5z"/>
		</g>
		<g id="&lt;Group&gt;" style="opacity: .5">
			<path id="&lt;Path&gt;" class="s5" d="m51.1 31.2c0 0-15.6-1.8-19.6 13.8-4 15.6 12.5 15.4 12.5 15.4 0 0 10.8 1.8 14.3-13.3 3.6-15-7.2-15.9-7.2-15.9z"/>
			<path id="&lt;Path&gt;" class="s5" d="m27.5 58.6c0 0-6.7-0.8-8.4 5.9-1.7 6.6 5.4 6.5 5.4 6.5 0 0 4.6 0.8 6.1-5.6 1.5-6.5-3.1-6.8-3.1-6.8z"/>
			<path id="&lt;Path&gt;" class="s5" d="m39.5 61.8c0 0-3.9-0.5-4.9 3.5-1 3.9 3.1 3.8 3.1 3.8 0 0 2.7 0.5 3.6-3.3 0.9-3.8-1.8-4-1.8-4z"/>
		</g>
		<g id="&lt;Group&gt;">
			<path id="&lt;Path&gt;" class="s6" d="m6.8 67.6c-2.7-0.9-7.2 15.1-6.8 34.1 0.5 19.1 5.3 33.5 8.7 40.6 3.4 7 4.1 4.8 4.1 4.8-21.3-39.4-6-79.5-6-79.5z"/>
			<path id="&lt;Path&gt;" class="s6" d="m191.7 57.1c-2.7-4.9-9.7-17.4-15.1-22.7-5.4-5.2-14.2-14.3-21.4-18.8-7.1-4.5-22.6-12.5-23.9-9.8 0 0 40.2 9.9 61.4 57.2 0 0 1.7-1-1-5.9z"/>
		</g>
	</g>
</svg>