<svg version="1.2" xmlns="http://www.w3.org/2000/svg" viewBox="0 0 200 200" width="200" height="200">
	<title>planet10</title>
	<style>
		.s0 { opacity: .5;fill: #fc9d11 } 
		.s1 { fill: #fc9d11 } 
		.s2 { fill: #ea8d13 } 
		.s3 { fill: #d87e13 } 
		.s4 { fill: #f9ce95 } 
		.s5 { fill: #f9a83d } 
	</style>
	<g id="&lt;Group&gt;">
		<g id="&lt;Group&gt;">
			<path id="&lt;Path&gt;" class="s0" d="m90.2 0c0 0-88.2 1.3-88.2 110.1 0 101.2 103.5 89.5 103.5 89.5 0 0 92.6-6.1 92.6-100.9 0-102.2-107.9-98.7-107.9-98.7z"/>
			<path id="&lt;Path&gt;" class="s0" d="m91.1 3.9c0 0-85 1.2-85 105.2 0 96.8 99.7 85.6 99.7 85.6 0 0 89.3-5.8 89.3-96.4 0-97.7-104-94.4-104-94.4z"/>
		</g>
		<g id="&lt;Group&gt;">
			<path id="&lt;Path&gt;" fill-rule="evenodd" class="s1" d="m99.4 191.5c-50.3 0-91.1-40.7-91.1-91.1 0-50.4 40.8-91.1 91.1-91.1 50.4 0 91.1 40.7 91.1 91.1 0 50.4-40.7 91.1-91.1 91.1z"/>
			<path id="&lt;Path&gt;" class="s2" d="m151.4 25.6c-5.4 18.6-19.5 48.9-55.5 60.4-37.7 12-70.7 7-86.9 3.1q-0.6 5.5-0.7 11.3c0 50.3 40.8 91.1 91.1 91.1 50.4 0 91.1-40.8 91.1-91.1 0-31-15.4-58.4-39.1-74.8z"/>
			<path id="&lt;Path&gt;" class="s3" d="m187.7 77.9c-3.8 22.6-18.2 51-64 63.6-62.2 17.2-98.2-4.6-111.8-16 10.9 38.1 45.9 66 87.5 66 50.4 0 91.1-40.8 91.1-91.1 0-7.8-0.9-15.3-2.8-22.5z"/>
		</g>
		<g id="&lt;Group&gt;" style="opacity: .5">
			<path id="&lt;Path&gt;" class="s4" d="m57.5 28.2c0 0-14-3.3-19.3 10.6-5.3 13.8 9.8 15.3 9.8 15.3 0 0 9.6 2.8 14.4-10.6 4.8-13.4-4.9-15.3-4.9-15.3z"/>
			<path id="&lt;Path&gt;" class="s4" d="m33.1 50.7c0 0-6-1.4-8.2 4.5-2.3 5.9 4.2 6.6 4.2 6.6 0 0 4.1 1.1 6.1-4.6 2.1-5.7-2.1-6.5-2.1-6.5z"/>
			<path id="&lt;Path&gt;" class="s4" d="m43.7 54.9c0 0-3.5-0.8-4.8 2.7-1.3 3.4 2.5 3.8 2.5 3.8 0 0 2.4 0.7 3.6-2.7 1.2-3.3-1.3-3.8-1.3-3.8z"/>
		</g>
		<g id="&lt;Group&gt;" style="opacity: .5">
			<path id="&lt;Path&gt;" class="s5" d="m177.9 57.2c-9.5-19.4-29.6-31.6-29.6-31.6-13 1.4 0.9 24.4 16.1 39.9 15.2 15.4 23.3 37.1 24.8 35.8 1.5-1.3-1.8-24.7-11.3-44.1z"/>
			<path id="&lt;Path&gt;" class="s5" d="m130.5 168.7c-12.6-3.5-31.5 5.5-48.9-0.9-17.4-6.3-28.5-41-40.3-38.9-11.7 2.2-17.6 15.8-9.3 28.3 0 0 11.1 17 38.7 26.7 27.6 9.8 60.4 1.6 65.9-3 0 0 6.5-8.7-6.1-12.2z"/>
			<path id="&lt;Path&gt;" class="s5" d="m122 70c-2.6-26.9-30-58.2-30-58.2-11.5-1.1-23.3 4.5-23.3 4.5-1.2 0.6 8.3 48.1 10.9 65.7 2.6 17.6 45 15 42.4-12z"/>
			<path id="&lt;Path&gt;" class="s5" d="m159.2 127c-2.8 3.9 2 34.1 7.1 31.7 0 0 11.9-13.3 17.7-29.9 0 0-22-5.7-24.8-1.8z"/>
			<path id="&lt;Path&gt;" class="s5" d="m161.4 110.2c-0.5-2.8-24.8-33.5-27.2-32.3-2.4 1.2 3.7 35.3-13.9 47.7-17.6 12.5-48.1 18.5-53.9 11.8 0 0 9.5 18.8 31.3 21.3 21.7 2.4 48.4-6.7 49.3-8.9 0.9-2.2 0.9-20.7 8.1-28 7.1-7.4 6.7-8.7 6.3-11.6z"/>
			<path id="&lt;Path&gt;" class="s5" d="m115.2 21.7c0 0-4.1 5.8 1.5 10.6 5.6 4.7 11.7-16 11.7-16-8.1-4.6-23.4-4.7-23.4-4.7-4.7 6.2 10.2 10.1 10.2 10.1z"/>
			<path id="&lt;Path&gt;" class="s5" d="m31.7 92.8c1.9-5.3-14-22.1-14-22.1 0 0-7.5 9.7-7.1 30.4 0 0 19.3-2.9 21.1-8.3z"/>
			<path id="&lt;Path&gt;" class="s5" d="m58.4 116.5c2.6-1.8 2-36.3-4.5-35.8 0 0-17.8 22.3-15.3 24.8 2.5 2.4 17.2 12.7 19.8 11z"/>
		</g>
	</g>
</svg>