<svg version="1.2" xmlns="http://www.w3.org/2000/svg" viewBox="0 0 200 200" width="200" height="200">
	<title>planet9</title>
	<style>
		.s0 { opacity: .5;fill: #adce73 } 
		.s1 { fill: #adce73 } 
		.s2 { fill: #a3bc6c } 
		.s3 { fill: #97aa65 } 
		.s4 { fill: #7c8951 } 
		.s5 { fill: #cded8a } 
		.s6 { fill: #727c4a } 
		.s7 { fill: #8a995c } 
	</style>
	<g id="&lt;Group&gt;">
		<path id="&lt;Path&gt;" class="s0" d="m101.4 2c0 0-98.4-4.3-98.4 105.5 0 102.9 98.4 90.2 98.4 90.2 0 0 96.4-3.1 96.4-94.7 0-101-96.4-101-96.4-101z"/>
		<path id="&lt;Path&gt;" class="s0" d="m101.8 6c0 0-93.6-4.2-93.6 100.9 0 98.6 93.6 86.4 93.6 86.4 0 0 91.7-3 91.7-90.7 0-96.6-91.7-96.6-91.7-96.6z"/>
		<g id="&lt;Group&gt;">
			<path id="&lt;Path&gt;" fill-rule="evenodd" class="s1" d="m100.1 189c-49.3 0-89.2-39.9-89.2-89.1 0-49.3 39.9-89.2 89.2-89.2 49.2 0 89.1 39.9 89.1 89.2 0 49.2-39.9 89.1-89.1 89.1z"/>
			<path id="&lt;Path&gt;" class="s2" d="m122 13.5c-0.1 16.6-4.3 52.8-36.5 67.5-31.1 14.1-59.9 7.6-73.2 3.1q-1.4 7.7-1.4 15.8c0 49.2 39.9 89.1 89.2 89.1 49.2 0 89.1-39.9 89.1-89.1 0-41.7-28.6-76.7-67.2-86.4z"/>
			<path id="&lt;Path&gt;" class="s3" d="m158.1 32.2c4.6 25.1 3.6 66-42.8 88.5-51 24.7-87.7 2.5-103.9-11.5 4.7 44.8 42.6 79.8 88.7 79.8 49.2 0 89.1-39.9 89.1-89.1 0-27.1-12.1-51.3-31.1-67.7z"/>
		</g>
		<g id="&lt;Group&gt;" style="opacity: .5">
			<path id="&lt;Path&gt;" class="s4" d="m33.9 75.2c0.7-1.3-7.5-6.8 0-16.6 7.5-9.8 27-10.6 27.9-12.8 1-2.1-17.5-12.4-17.5-12.4-22 16.8-27.7 42.5-27.7 42.5 0.6 1.7 16.6 0.6 17.3-0.7z"/>
			<path id="&lt;Path&gt;" class="s4" d="m37.2 108.6c-0.2-2.2-22.9-5.3-23.7-4.4 0 0-1.1 9.1 4.1 23.6 0 0 19.7-16.9 19.6-19.2z"/>
			<path id="&lt;Path&gt;" class="s4" d="m105.3 101.2c-0.9-4.8-35.1 1.8-38.5 3-3.4 1.2-5.1 14.8-17.2 23.6-12.1 8.8-27.9 9.1-27.9 9.1 2.5 10.5 11.3 15.7 11.3 15.7 5.1-12.3 23.7-19.1 23.7-19.1 42.2-3.4 49.4-27.5 48.6-32.3z"/>
			<path id="&lt;Path&gt;" class="s4" d="m40.8 161.5c0 0 9 12.2 28.1 19.4 0 0 10.3-18.6 3.9-33.6-6.5-15.1-32 14.2-32 14.2z"/>
			<path id="&lt;Path&gt;" class="s4" d="m117 127.8c-3.2-1.8-32.8 2-34 7.8-1.3 5.7 5.9 25.9 1.2 49.3 0 0 11.2 3 21.2 2.2 0 0 8.4-9.4 9.3-21.7 0.8-12.4 5.5-35.8 2.3-37.6z"/>
			<path id="&lt;Path&gt;" class="s4" d="m147.8 110.3c-9.1-3.9-16.8-0.4-22.5 10.6-5.8 11.1-9.4 61.1 0 62.3 0 0 12.8-2.1 22.5-10 0 0 9.2-59 0-62.9z"/>
			<path id="&lt;Path&gt;" class="s4" d="m186.5 90.9c-0.3-4.3-19.5 6.2-25.5 14.5-5.9 8.3 6.6 49.5 6.6 49.5 23.8-28.2 18.9-64 18.9-64z"/>
			<path id="&lt;Path&gt;" class="s4" d="m139.1 75.4c-5.7-2.1-23.2 27.2-21 31.3 2.2 4 35.1-8.3 36.3-12.2 1.3-3.8-15.3-19.1-15.3-19.1z"/>
			<path id="&lt;Path&gt;" class="s4" d="m164.8 78.8c4.1 0.2 16.9-8.9 16.9-8.9-0.3-7.3-9.8-19.2-9.8-19.2-3.7-5-37.3 1.5-38.5 7.9-1.3 6.4 27.4 20 31.4 20.2z"/>
			<path id="&lt;Path&gt;" class="s4" d="m85.9 54.3c-7.6 0-25.3 24.9-25.3 24.9-2.6 3.4 8.3 8.7 13 8.7 4.7 0 23.4-14.5 26.6-15.4 3.2-0.9 17.9 7.9 20.2 7.7 2.3-0.2 9.6-6.8 10-8.7 0.4-1.9-3.2-7.4-4.5-9.6-1.2-2.1-32.3-7.6-40-7.6z"/>
			<path id="&lt;Path&gt;" class="s4" d="m121 41.4c6.6-1.1 5.4-25.3 5.4-25.3-31.5-9.6-60.2 3.2-60.2 3.2-3.6 10.6 48.2 23.1 54.8 22.1z"/>
			<path id="&lt;Path&gt;" class="s4" d="m164.5 40.3c-12-13.7-25.5-19.6-25.5-19.6-4.1-0.1-6.8 19.5-2.8 23.9 4 4.4 28.3-4.3 28.3-4.3z"/>
		</g>
		<g id="&lt;Group&gt;" style="opacity: .5">
			<path id="&lt;Path&gt;" class="s5" d="m51.9 47.1c0 0-23.7 5.9-21 30.9 2.6 25 26.7 15.7 26.7 15.7 0 0 16.7-3.2 13.7-27.2-3.1-24-19.4-19.4-19.4-19.4z"/>
			<path id="&lt;Path&gt;" class="s5" d="m32.3 100c0 0-10.1 2.5-8.9 13.2 1.1 10.7 11.4 6.7 11.4 6.7 0 0 7.1-1.4 5.8-11.6-1.3-10.3-8.3-8.3-8.3-8.3z"/>
			<path id="&lt;Path&gt;" class="s5" d="m51.7 98.2c0 0-6 1.5-5.3 7.7 0.7 6.3 6.7 4 6.7 4 0 0 4.2-0.8 3.5-6.8-0.8-6.1-4.9-4.9-4.9-4.9z"/>
		</g>
		<g id="&lt;Group&gt;" style="opacity: .5">
			<path id="&lt;Path&gt;" class="s6" d="m56 42.9c0.9-1.7-11.3-7.5-11.3-7.5-3.8 3 10.5 9.1 11.3 7.5z"/>
			<path id="&lt;Path&gt;" class="s6" d="m16.6 109.4c0 0 0.4 11 1.8 10.9 1.3 0 10.1-6.5 9.2-8.5-0.9-1.9-10.7-4.2-11-2.4z"/>
			<path id="&lt;Path&gt;" class="s6" d="m100.3 103.4c-0.7-2.8-22.1 2.3-22.1 2.3-1.7 2.9 10.7 10 12.6 10.5 2 0.5 10.2-10 9.5-12.8z"/>
			<path id="&lt;Path&gt;" class="s6" d="m64.5 152.3c-4.1-1.3-17.5 7.1-17.2 9.6 0 0 15.4 11.9 16.7 11.2 1.4-0.7 4.6-19.5 0.5-20.8z"/>
			<path id="&lt;Path&gt;" class="s6" d="m92.3 140.2c-1.7 1.3 4.8 12.8 4.6 19.5-0.1 6.7-2.9 18-2.9 18 11 3.5 14.6-34.3 13.6-37.5-1-3.2-13.5-1.4-15.3 0z"/>
			<path id="&lt;Path&gt;" class="s6" d="m138.4 125.8c-1.4-0.8-8.2 6.4-9.9 18.8-1.7 12.4 4.6 23.2 4.6 23.2 2.8 0.9 8.9-14.6 9.2-24 0.3-9.3-2.5-17.2-3.9-18z"/>
			<path id="&lt;Path&gt;" class="s6" d="m178 95.4c0 0-13.1 6.2-11.7 10.4 1.5 4.3 17.3-6.9 11.7-10.4z"/>
			<path id="&lt;Path&gt;" class="s6" d="m139.2 84.1c-1.7-1.8-12.3 11.8-11 14.3 1.3 2.6 16.2-6.1 16.9-8.1 0.7-2.1-5.9-6.2-5.9-6.2z"/>
			<path id="&lt;Path&gt;" class="s6" d="m97.9 67.1c0.7-2.3-9.5-6.7-11.3-7.3-1.8-0.6-16.5 17.8-16.5 17.8 0.4 6.4 27.1-8.2 27.8-10.5z"/>
			<path id="&lt;Path&gt;" class="s6" d="m172.4 63.9c0 0-6.2-9.7-7.3-9.3-1.2 0.5-19.6 1.4-20 3.6-0.3 2.1 11.3 10 14.3 10.4 3 0.3 13.1-2.4 13-4.7z"/>
			<path id="&lt;Path&gt;" class="s6" d="m157.5 36.3c0.4-1.7-14.1-11.5-14.1-11.5-2.8-0.5-3.2 12.7-1.4 15.1 1.7 2.4 15.1-1.9 15.5-3.6z"/>
			<path id="&lt;Path&gt;" class="s6" d="m104.2 15.3c-10.9-0.9-24.5 3-24.5 3-2.1 3.8 38.5 16.5 40.2 16.1 1.7-0.3 3.5-13.1 3.2-14.2-0.3-1-7.9-4.1-18.9-4.9z"/>
		</g>
		<g id="&lt;Group&gt;">
			<path id="&lt;Path&gt;" class="s7" d="m13.8 79.2c-2.6-0.7-4.9 18.1-2.4 35.3 2.4 17.3 9.6 28.9 9.6 28.9 2.8 5.9 4.9 5.3 4.9 5.3-22.4-30.6-12.1-69.5-12.1-69.5z"/>
			<path id="&lt;Path&gt;" class="s7" d="m168.5 40.6c-2.6-3.1-12.5-12-19.1-16.1-6.7-4.1-33.5-16.4-36.2-12.8 0 0 37.1 5.9 56.9 33 0 0 1.1-1-1.6-4.1z"/>
		</g>
	</g>
</svg>