<svg version="1.2" xmlns="http://www.w3.org/2000/svg" viewBox="0 0 200 200" width="200" height="200">
	<title>planet3</title>
	<style>
		.s0 { fill: #f99b88 } 
		.s1 { fill: #f48c7a } 
		.s2 { fill: #ef7e6f } 
		.s3 { fill: #ea6c63 } 
		.s4 { fill: #ffffff } 
		.s5 { fill: #e55955 } 
	</style>
	<g id="&lt;Group&gt;">
		<g id="&lt;Group&gt;">
			<path id="&lt;Path&gt;" fill-rule="evenodd" class="s0" d="m103.5 172.4c-47.6 0-86.1-38.6-86.1-86.2 0-47.7 38.5-86.2 86.1-86.2 47.7 0 86.2 38.5 86.2 86.2 0 47.6-38.5 86.2-86.2 86.2z"/>
			<path id="&lt;Path&gt;" class="s1" d="m152.1 15c-4.1 17.1-16.9 42.1-56.1 45.6-35.9 3.2-55.9-8.8-66.2-19-7.9 13-12.4 28.3-12.4 44.6 0 47.6 38.5 86.2 86.1 86.2 47.6 0 86.2-38.6 86.2-86.2 0-29.6-14.9-55.7-37.6-71.2z"/>
			<path id="&lt;Path&gt;" class="s2" d="m112.1 120.6c-55.4 3.6-82.5-14.7-94.4-27.1 3.7 44.1 40.7 78.9 85.8 78.9 47.6 0 86.2-38.6 86.2-86.2q0-5.3-0.6-10.4c-9.2 19.1-30 41.8-77 44.8z"/>
		</g>
		<g id="&lt;Group&gt;">
			<path id="&lt;Path&gt;" class="s3" d="m17.7 70.7c-2.5 13.5-0.5 25.9 0.3 32.5 0.9 6.5 2.5 6.1 2.5 6.1-11.1-45.4 14.9-75.9 14.9-75.9-3.6-1.9-15.2 23.8-17.7 37.3z"/>
			<path id="&lt;Path&gt;" class="s3" d="m190.7 75.8c-0.7-8.7-6-28.9-13-36.6 0 0-8.3-13.5-18.2-21-9.9-7.5-17-11.5-18.1-9.5 0 0 46.5 22.2 48.3 75 0 0 1.8 0.9 1-7.9z"/>
		</g>
		<g id="&lt;Group&gt;" style="opacity: .8">
			<path id="&lt;Path&gt;" class="s3" d="m35.2 101.2c0 0-14.4 31.6 8.2 34.7 22.7 3.1 17.5-45-8.2-34.7z"/>
			<path id="&lt;Path&gt;" class="s3" d="m101 120.7c-31.2 1.5-35.8 24.1-35.8 24.1-0.2 5.9 6.2 19.9 36.8 19.9 30.7 0 42.8-17.7 42.8-21 0-3.2-12.5-24.4-43.8-23z"/>
			<path id="&lt;Path&gt;" class="s3" d="m91.1 88.2c0 0-25.7 10.9-17.6 21.6 8 10.7 32.9-16.9 17.6-21.6z"/>
			<path id="&lt;Path&gt;" class="s3" d="m173.7 54.5c-9.3-21.8-28.2-25.5-28.2-25.5-6 0.3-14 16.2-10.7 38.7 3.3 22.4 20.2 34.9 28.8 35.3 8.6 0.4 19.3-26.7 10.1-48.5z"/>
			<path id="&lt;Path&gt;" class="s3" d="m137.8 11.9c0 0-13.8-7.9-16.2-2.2-2.3 5.8 16 10.7 16.2 2.2z"/>
			<path id="&lt;Path&gt;" class="s3" d="m114.2 65c27.9-7.6-5.8-63.9-25.6-51.4 0 0-2.3 59 25.6 51.4z"/>
			<path id="&lt;Path&gt;" class="s3" d="m47.8 41.9c0 0-7.9 26.9 6 28.9 13.9 2 10.6-37.8-6-28.9z"/>
		</g>
		<g id="&lt;Group&gt;" style="opacity: .3">
			<path id="&lt;Path&gt;" class="s4" d="m90 12.2c0 0-22.4-7.6-33.2 14.2-10.8 21.8 13.6 26.7 13.6 26.7 0 0 15.3 6.1 25.3-15.1 10-21.1-5.7-25.8-5.7-25.8z"/>
			<path id="&lt;Path&gt;" class="s4" d="m46.6 45.1c0 0-9.6-3.2-14.2 6.1-4.7 9.3 5.8 11.4 5.8 11.4 0 0 6.5 2.6 10.8-6.5 4.2-9-2.4-11-2.4-11z"/>
			<path id="&lt;Path&gt;" class="s4" d="m63.3 53.7c0 0-5.7-1.9-8.4 3.6-2.7 5.4 3.4 6.7 3.4 6.7 0 0 3.9 1.5 6.4-3.8 2.5-5.3-1.4-6.5-1.4-6.5z"/>
		</g>
		<g id="&lt;Group&gt;">
			<path id="&lt;Path&gt;" class="s5" d="m11.1 104.9c0 0-11.4 2.1-9.8 7.4 1.5 5.2 15.4-3.1 9.8-7.4z"/>
			<path id="&lt;Path&gt;" class="s5" d="m0 120.6c0 0-0.6 8.9 3.7 8.8 4.4-0.1 0.3-10.9-3.7-8.8z"/>
			<path id="&lt;Path&gt;" class="s5" d="m33.3 120.6c0 0-18.9 1.9-16.8 8.8 2 7 23.6-4.1 16.8-8.8z"/>
			<path id="&lt;Path&gt;" class="s5" d="m54.2 112.3c0 0-14.4 21.4-6 23.5 8.3 2.1 16.4-23.9 6-23.5z"/>
			<path id="&lt;Path&gt;" class="s5" d="m92.6 100.2c-7.7-3.7-8.7 14.8-8.7 14.8 7.8 6.1 16.4-11 8.7-14.8z"/>
			<path id="&lt;Path&gt;" class="s5" d="m158.3 73.1c-6.5-2.4-42.9 9.3-43.5 20.6 0 0 16.5 20.7 23 18.6 6.6-2.2 27-36.7 20.5-39.2z"/>
			<path id="&lt;Path&gt;" class="s5" d="m196.2 44.6c-5-3.9-21.3 19.6-21.3 19.6-0.9 8.6 16.1 1.2 21.3-1.3 5.2-2.5 5-14.4 0-18.3z"/>
			<path id="&lt;Path&gt;" class="s5" d="m198.7 30.4c0 0-11-5.6-13.1 0.2-2.1 5.8 15.8 7.7 13.1-0.2z"/>
		</g>
	</g>
</svg>