<svg version="1.2" xmlns="http://www.w3.org/2000/svg" viewBox="0 0 200 200" width="200" height="200">
	<title>planet1</title>
	<style>
		.s0 { fill: #ffc149 } 
		.s1 { fill: #fcb73d } 
		.s2 { fill: #f4a931 } 
		.s3 { fill: #ef9d26 } 
		.s4 { opacity: .5;fill: #ef9d26 } 
		.s5 { fill: #f9e2b9 } 
		.s6 { fill: #f4d6a6 } 
		.s7 { fill: #f4e8d4 } 
		.s8 { fill: #ffffff } 
	</style>
	<g id="&lt;Group&gt;">
		<g id="&lt;Group&gt;">
			<g id="&lt;Group&gt;">
				<path id="&lt;Path&gt;" fill-rule="evenodd" class="s0" d="m86.3 177.8c-44.6 0-80.7-36-80.7-80.6 0-44.6 36.1-80.6 80.7-80.6 44.6 0 80.6 36 80.6 80.6 0 44.6-36 80.6-80.6 80.6z"/>
				<path id="&lt;Path&gt;" class="s1" d="m121.9 24.8c-4.6 13.2-16.1 32-44.8 37.8-29.2 5.9-50.3 0.6-61.7-3.9-6.2 11.4-9.8 24.5-9.8 38.5 0 44.5 36.1 80.6 80.7 80.6 44.5 0 80.6-36.1 80.6-80.6 0-31.8-18.3-59.2-45-72.4z"/>
				<path id="&lt;Path&gt;" class="s2" d="m155.6 56.2c-6.6 21.2-23.2 50.3-65 55.4-45.2 5.6-72.2-7.7-84.9-17q-0.1 1.4-0.1 2.8c0 44.6 36.1 80.7 80.7 80.7 44.5 0 80.6-36.1 80.6-80.7 0-15.1-4.1-29.2-11.3-41.2z"/>
			</g>
			<g id="&lt;Group&gt;">
				<path id="&lt;Path&gt;" class="s3" d="m4.9 90.1c-1.5 14 2.1 28.3 3.6 32.8 1.5 4.5 2.5 3.5 2.5 3.5-15.5-38.7 7.9-73.5 7.9-73.5-3.8-0.8-12.5 23.1-14 37.2z"/>
				<path id="&lt;Path&gt;" class="s3" d="m161.3 64.4c-3.5-6.8-10-18.2-15.1-22.7 0 0-9.7-10.2-16.3-14-6.5-3.7-15.5-8.6-16.4-6.4 0 0 35.4 11.2 49.7 50.9 0 0 1.6-1-1.9-7.8z"/>
			</g>
			<g id="&lt;Group&gt;">
				<path id="&lt;Path&gt;" class="s4" d="m107.6 70.5c0 0 7-8.8-4.9-13.7-12-4.9-90.2 5-92.2 12.7 0 0 79.2-12.7 97.1 1z"/>
				<path id="&lt;Path&gt;" class="s4" d="m67.4 110.2c-31.7 5.4-59.9 4.7-59.9 4.7 0 0 25.6 12.5 61.3 6.4 35.7-6 87.2-42.3 92-55.1 0 0-61.7 38.6-93.4 44z"/>
				<path id="&lt;Path&gt;" class="s4" d="m27.5 152.4c0 0 37.3-4.9 64.4 2.4 27.1 7.3 39.3 9.6 39.3 9.6 0 0-30.5-20.8-51.7-20.8-21.1 0.1-48.9 4.8-52 8.8z"/>
			</g>
			<g id="&lt;Group&gt;">
				<g id="&lt;Group&gt;">
					<path id="&lt;Path&gt;" class="s5" d="m72 118.5c40.5-5.2 92.7-54.3 91.5-55.7-1.1-1.5-11.8-26.6-36-39.3 0 0-94.5 23.7-108.6 24.7 0 0-12.7 18.6-11.2 20.9 1.4 2.3 27.4-7.5 53.4-7.5 26 0 46.7 4.8 47 7.9 0.3 3.1-30.9 24.7-52.8 25.6-21.9 0.9-51.7-1.4-52.8 0-1.2 1.4-0.1 14.6 2.1 17.9 2.2 3.3 27 10.7 67.4 5.5z"/>
					<path id="&lt;Path&gt;" class="s5" d="m13.7 137.2c0 0 6.7 10.7 11.3 15.9 0 0 14.7-6 41.6-5.2 26.8 0.9 64.9 17.6 66.9 17.1 2-0.6 26.9-24.6 30-36.1 0 0-17.8-11.4-44.1-11.8-26.3-0.4-104.8 17-105.7 20.1z"/>
				</g>
				<g id="&lt;Group&gt;">
					<path id="&lt;Path&gt;" class="s6" d="m61.1 61.6c26 0 46.7 4.8 47 7.9-2.7-22-88.7-4.4-94.4-3.3-2.3 0.5-4.2 0.3-5.5-0.1-0.6 1.5-0.8 2.6-0.5 3 1.4 2.3 27.4-7.5 53.4-7.5z"/>
					<path id="&lt;Path&gt;" class="s6" d="m163.5 62.8c-0.1-0.2-0.5-1-1.1-2.1-9.4 9.7-75.5 57.3-110.9 57.3-28.7 0-43.1-6.4-48.5-9.5 0.4 1.9 1 3.6 1.6 4.5 2.2 3.3 27 10.7 67.4 5.5 40.5-5.2 92.7-54.3 91.5-55.7z"/>
					<path id="&lt;Path&gt;" class="s6" d="m23.3 151.1q0.9 1.1 1.7 2c0 0 14.7-6 41.6-5.2 26.8 0.9 64.9 17.6 66.9 17.1 0.3-0.1 1.1-0.7 2.2-1.7-9.7-5.9-37.2-18.3-67.4-19.5-28.1-1.2-40.5 4.4-45 7.3z"/>
				</g>
				<g id="&lt;Group&gt;">
					<path id="&lt;Path&gt;" class="s7" d="m130.4 25.5q-1.4-0.9-2.9-1.7c0 0-94.5 23.7-108.6 24.7 0 0-0.5 0.7-1.3 1.9 4.1-0.1 12.4-1 29.3-3.9 30.9-5.4 73.4-15 83.5-21z"/>
					<path id="&lt;Path&gt;" class="s7" d="m57.8 98.2c27.8-2.5 55.7-29.1 61.9-30.4 5-1.1 30.1-9.5 39.3-13.1q-1.1-1.8-2.5-3.9c-11 3.9-42.9 15.4-48.4 18.7 0.3 3.1-30.9 24.7-52.8 25.6-21.9 0.9-51.7-1.4-52.8 0q-0.2 0.2-0.3 0.5c7.3 1.2 32.2 4.7 55.6 2.6z"/>
					<path id="&lt;Path&gt;" class="s7" d="m119.4 117.1c-26.3-0.4-104.8 17-105.7 20.1 0 0 0.6 0.9 1.5 2.3 5.7-2.1 27.3-9.7 49.8-12.4 24-2.8 75.4-8.4 96.9 5.8 0.7-1.5 1.3-2.8 1.6-4 0 0-17.8-11.4-44.1-11.8z"/>
				</g>
			</g>
			<g id="&lt;Group&gt;" style="opacity: .3">
				<path id="&lt;Path&gt;" class="s8" d="m66.8 34.7c0 0-21-7.1-31.1 13.3-10.1 20.4 12.7 25.1 12.7 25.1 0 0 14.4 5.6 23.7-14.2 9.4-19.8-5.3-24.2-5.3-24.2z"/>
				<path id="&lt;Path&gt;" class="s8" d="m26.1 65.6c0 0-8.9-3.1-13.3 5.6-4.3 8.7 5.5 10.7 5.5 10.7 0 0 6.1 2.4 10.1-6 4-8.5-2.3-10.3-2.3-10.3z"/>
				<path id="&lt;Path&gt;" class="s8" d="m41.8 73.6c0 0-5.3-1.8-7.8 3.3-2.6 5.2 3.2 6.3 3.2 6.3 0 0 3.6 1.4 5.9-3.5 2.3-5-1.3-6.1-1.3-6.1z"/>
			</g>
		</g>
		<path id="&lt;Path&gt;" class="s0" d="m18.9 30.4c0 0 22.9-25.6 56.3-25.9 33.5-0.3 39.8 4 39.8 2.6 0.1-1.5-13.8-6.7-43-4.6-29.1 2-53.7 24.7-53.1 27.9z"/>
		<path id="&lt;Path&gt;" class="s0" d="m17 169.5c0 0 24.5 30.4 72.6 26.6 48.1-3.9 91.2-46.9 89.7-103.1 0 0 10 7.3-4.6 43.1-14.6 35.7-44.8 58.4-86.7 62.3-41.9 3.8-73.2-23.9-71-28.9z"/>
		<g id="&lt;Group&gt;">
			<g id="&lt;Group&gt;">
				<path id="&lt;Path&gt;" class="s0" d="m200.7 19.9c3 11.2-3.5 22.8-14.7 25.8-11.2 3.1-22.7-3.5-25.8-14.7-3.1-11.1 3.5-22.7 14.7-25.7 11.2-3.1 22.7 3.5 25.8 14.6z"/>
				<path id="&lt;Path&gt;" class="s1" d="m184.4 4.9c-0.2 3.6-1.8 9.1-8.6 12.5-7 3.5-12.6 3.7-15.8 3.3-0.8 3.3-0.8 6.8 0.2 10.3 3.1 11.2 14.6 17.8 25.8 14.7 11.2-3 17.7-14.6 14.7-25.8-2.2-7.9-8.7-13.6-16.3-15z"/>
				<path id="&lt;Path&gt;" class="s2" d="m195 10.4c-0.2 5.8-2.4 14.3-12.5 18.4-10.9 4.5-18.6 3-22.5 1.6q0.1 0.3 0.2 0.7c3.1 11.2 14.6 17.7 25.8 14.7 11.2-3.1 17.7-14.6 14.7-25.8-1-3.8-3.1-7-5.7-9.6z"/>
			</g>
			<g id="&lt;Group&gt;">
				<path id="&lt;Path&gt;" class="s3" d="m159.5 29.3c0.6 3.6 2.5 7 3.2 8 0.7 1 0.9 0.7 0.9 0.7-6.6-8.6-3.1-19-3.1-19-1 0.1-1.6 6.7-1 10.3z"/>
				<path id="&lt;Path&gt;" class="s3" d="m197 12.1c-1.3-1.5-3.8-3.9-5.3-4.7 0 0-3.2-1.8-5.1-2.3-1.9-0.5-4.5-1.1-4.6-0.5 0 0 9.7 0.4 16 9.3 0 0 0.3-0.3-1-1.8z"/>
			</g>
			<g id="&lt;Group&gt;">
				<path id="&lt;Path&gt;" class="s4" d="m184 17.3c0 0 1.1-2.7-2.2-3.1-3.4-0.4-22.3 7.5-22.3 9.5 0 0 19-8.6 24.5-6.4z"/>
				<path id="&lt;Path&gt;" class="s4" d="m176.6 30c-7.6 3.6-14.7 5.3-14.7 5.3 0 0 7.3 1.4 15.8-2.6 8.5-3.9 19-16.6 19.3-20.1 0 0-12.8 13.9-20.4 17.4z"/>
				<path id="&lt;Path&gt;" class="s4" d="m169.5 43.4c0 0 9-3.8 16.3-3.8 7.3-0.1 10.5-0.3 10.5-0.3 0 0-9.1-3.1-14.4-1.7-5.3 1.5-11.9 4.6-12.4 5.8z"/>
			</g>
			<g id="&lt;Group&gt;">
				<g id="&lt;Group&gt;">
					<path id="&lt;Path&gt;" class="s5" d="m178.3 31.8c9.8-4.1 19.5-20 19.2-20.3-0.4-0.2-4.8-5.8-11.8-7.3 0 0-22.1 12.4-25.5 13.6 0 0-1.9 5.6-1.4 6 0.5 0.5 6.3-3.7 12.9-5.5 6.5-1.8 12-2 12.3-1.3 0.3 0.8-6 8.4-11.5 10.1-5.4 1.7-13 3.2-13.2 3.6-0.2 0.5 0.9 3.7 1.7 4.4 0.8 0.6 7.5 0.8 17.3-3.3z"/>
					<path id="&lt;Path&gt;" class="s5" d="m165 40.5c0 0 2.4 2.2 3.9 3.2 0 0 3.3-2.5 10.1-4.1 6.8-1.7 17.5-0.1 17.9-0.4 0.5-0.2 5.1-8 5.1-11.1 0 0-5.3-1.6-11.9 0.1-6.6 1.7-25.1 11.5-25.1 12.3z"/>
				</g>
				<g id="&lt;Group&gt;">
					<path id="&lt;Path&gt;" class="s6" d="m171.7 18.3c6.5-1.8 12-2 12.3-1.3-2.2-5.3-22.6 5-23.9 5.7-0.6 0.3-1 0.4-1.4 0.4 0 0.4 0 0.7 0.1 0.7 0.5 0.5 6.3-3.7 12.9-5.5z"/>
					<path id="&lt;Path&gt;" class="s6" d="m197.5 11.5q-0.1 0-0.5-0.4c-1.7 3.1-15 19.6-23.9 22-7.2 2-11.2 1.4-12.8 0.9 0.3 0.5 0.5 0.9 0.7 1.1 0.8 0.6 7.5 0.8 17.3-3.3 9.8-4.1 19.5-20 19.2-20.3z"/>
					<path id="&lt;Path&gt;" class="s6" d="m168.3 43.4q0.3 0.2 0.6 0.3c0 0 3.3-2.5 10.1-4.1 6.8-1.7 17.5-0.1 17.9-0.4q0.2 0 0.5-0.5c-2.9-0.8-10.6-2-18.3-0.3-7.1 1.7-9.8 3.9-10.8 5z"/>
				</g>
				<g id="&lt;Group&gt;">
					<path id="&lt;Path&gt;" class="s7" d="m186.6 4.5q-0.4-0.2-0.9-0.3c0 0-22 12.5-25.5 13.7 0 0-0.1 0.2-0.2 0.6 1-0.3 3-1.1 7.1-3 7.4-3.5 17.4-8.8 19.5-11z"/>
					<path id="&lt;Path&gt;" class="s7" d="m173.4 27.7c6.8-2.5 11.9-11.1 13.4-11.9 1.2-0.6 6.9-4.4 9-6q-0.4-0.4-0.9-0.8c-2.5 1.7-9.7 6.8-10.9 8 0.3 0.8-6 8.4-11.5 10.1-5.4 1.7-13 3.2-13.2 3.6q-0.1 0.1-0.1 0.2c1.9-0.2 8.4-1.1 14.2-3.2z"/>
					<path id="&lt;Path&gt;" class="s7" d="m190.1 28.2c-6.6 1.7-25.1 11.5-25.1 12.3 0 0 0.2 0.2 0.5 0.5 1.3-0.9 6.2-4.3 11.6-6.5 5.9-2.4 18.4-7.3 24.8-5.3q0.1-0.6 0.1-1.1c0 0-5.3-1.6-11.9 0.1z"/>
				</g>
			</g>
		</g>
	</g>
</svg>