<svg version="1.2" xmlns="http://www.w3.org/2000/svg" viewBox="0 0 200 200" width="200" height="200">
	<title>planet7</title>
	<style>
		.s0 { opacity: .5;fill: #fcd810 } 
		.s1 { fill: #fcd810 } 
		.s2 { fill: #eac511 } 
		.s3 { fill: #d8b213 } 
		.s4 { fill: #fc9d11 } 
		.s5 { fill: #ea8d13 } 
		.s6 { fill: #f9e480 } 
		.s7 { fill: #f9c785 } 
		.s8 { fill: #c4a214 } 
	</style>
	<g id="&lt;Group&gt;">
		<g id="&lt;Group&gt;">
			<path id="&lt;Path&gt;" class="s0" d="m95.9 1.1c0 0-95.9 1.9-95.9 107.8 0 98.6 101 90.8 101 90.8 0 0 99-1 99-101.3 0-104.6-104.1-97.3-104.1-97.3z"/>
			<path id="&lt;Path&gt;" class="s0" d="m96 7.2c0 0-91.6 1.9-91.6 102.1 0 93.4 96.5 86.1 96.5 86.1 0 0 94.5-1.1 94.5-96 0-99.1-99.4-92.2-99.4-92.2z"/>
		</g>
		<g id="&lt;Group&gt;">
			<path id="&lt;Path&gt;" fill-rule="evenodd" class="s1" d="m100.2 193.3c-50.8 0-91.9-41.1-91.9-92 0-50.8 41.1-91.9 91.9-91.9 50.9 0 91.9 41.1 91.9 91.9 0 50.9-41 92-91.9 92z"/>
			<path id="&lt;Path&gt;" class="s2" d="m153.6 26.5c-6.4 21.2-22.1 49.4-60.8 54.9-38.2 5.4-65-1.1-80.4-7.2-2.7 8.6-4.1 17.7-4.1 27.1 0 50.8 41.2 92 91.9 92 50.8 0 91.9-41.2 91.9-92 0-30.8-15.2-58.1-38.5-74.8z"/>
			<path id="&lt;Path&gt;" class="s3" d="m175.9 49.1c-1.2 22.5-10.4 68.4-64.3 81.1-54.7 12.9-89.3-9.2-102.9-20.9 4 47.1 43.5 84 91.5 84 50.8 0 91.9-41.2 91.9-92 0-19.4-6-37.4-16.2-52.2z"/>
		</g>
		<g id="&lt;Group&gt;">
			<g id="&lt;Group&gt;">
				<path id="&lt;Path&gt;" class="s4" d="m114.1 12.8c-0.2-1.3-25.7-1.1-43.7 3.8-18 4.8-29.2 19.1-29.2 19.1-2.4 10.1 29.4 13.3 39.8 13.4 10.3 0.1 33.3-34.9 33.1-36.3z"/>
				<path id="&lt;Path&gt;" class="s5" d="m81 49.1c10.3 0.1 33.3-34.9 33.1-36.3-0.1-0.3-2.1-0.6-5.3-0.6-4.6 7.8-18.3 30-27.4 32.2-10 2.5-34.3-3.7-39.3-9.7-0.6 0.6-0.9 1-0.9 1-2.4 10.1 29.4 13.3 39.8 13.4z"/>
			</g>
			<g id="&lt;Group&gt;">
				<path id="&lt;Path&gt;" class="s4" d="m126.3 15c0 0 12.9 3.5 19.1 8.2 0 0-6 8.7-8.3 17.6-2.3 8.9 3.8 19.9 1.9 22.5-1.9 2.6-23.4 7.5-25.6 6.1-2.2-1.3-15.6-10.3-14.8-13.1 0.9-2.8 23.8-42.4 27.7-41.3z"/>
				<path id="&lt;Path&gt;" class="s5" d="m139 63.3c1.9-2.6-4.2-13.6-1.9-22.5 2.3-8.9 8.3-17.6 8.3-17.6q-1-0.7-2.2-1.4c-3 3.5-8.3 10.3-10.5 17.7-3.2 10.6 1.3 20.9 0 21.8-1.3 0.8-16.1 3-18.6 1.6-2.3-1.3-10.4-9.4-13.1-11.1-1.4 2.3-2.2 4-2.4 4.5-0.8 2.8 12.6 11.8 14.8 13.1 2.2 1.4 23.7-3.5 25.6-6.1z"/>
			</g>
			<g id="&lt;Group&gt;">
				<path id="&lt;Path&gt;" class="s4" d="m158.7 32c0 0 15.7 13.5 23.3 30.6 0 0-31.4 7.9-35.4 0.8-3.9-7 7.3-33.9 12.1-31.4z"/>
				<path id="&lt;Path&gt;" class="s5" d="m145.9 61.1q0.2 1.4 0.7 2.4c4 7 35.4-0.9 35.4-0.9q-0.7-1.5-1.4-3c-7.5 1.3-28.2 4.4-34.7 1.5z"/>
			</g>
			<g id="&lt;Group&gt;">
				<path id="&lt;Path&gt;" class="s4" d="m186.1 72.2c0 0 1.3 2.7 1.8 4.7 0 0-21.1 8.9-31.8 18.9-10.7 9.9-17.5 21.3-18.6 21.5-1 0.1-40.7-12.6-38.9-19 1.8-6.5 20.8-24.3 39.2-25.2 18.5-0.9 47.5-2.6 48.3-0.9z"/>
				<path id="&lt;Path&gt;" class="s5" d="m187.1 74.6c-3.3 0.8-9.5 2.9-19.4 8.3-16.3 8.8-30.7 30.7-32.5 30-1.5-0.7-28.7-10.5-35.2-17.5-0.7 1.1-1.2 2.1-1.4 2.9-1.8 6.4 37.9 19.1 38.9 19 1.1-0.2 7.9-11.6 18.6-21.5 10.7-10 31.8-18.9 31.8-18.9-0.2-0.7-0.5-1.5-0.8-2.3z"/>
			</g>
			<g id="&lt;Group&gt;">
				<path id="&lt;Path&gt;" class="s4" d="m189.2 85.8c0 0 2.9 13.5 1 24.1 0 0-26.9-2.1-27.1-6.8-0.1-4.7 26.1-17.3 26.1-17.3z"/>
				<path id="&lt;Path&gt;" class="s5" d="m190.4 108.7c-4.3-0.4-24-2.5-23.9-5.9 0.1-3.5 19-14.5 22.7-16.6q0-0.4 0-0.4c0 0-26.2 12.6-26.1 17.3 0.2 4.7 27.1 6.8 27.1 6.8q0.1-0.6 0.2-1.2z"/>
			</g>
			<g id="&lt;Group&gt;">
				<path id="&lt;Path&gt;" class="s4" d="m179.1 115.7c0 0 9.6 4.7 9.9 5.9 0.3 1.3-5.8 23.2-19.8 38-13.9 14.8-22.1 18.8-22.6 18.5-0.4-0.2-7.8-9.7-6.8-11.4 1.1-1.6 23.4-12.9 32-23.9 8.5-11 3.9-27.3 7.3-27.1z"/>
				<path id="&lt;Path&gt;" class="s5" d="m172.9 144c7.8-8.9 5.9-24 6.8-25.5 1-1.5 6.7 1.2 6.7 1.2-2.9-1.8-7.3-4-7.3-4-3.4-0.2 1.2 16.1-7.3 27.1-8.6 11-30.9 22.3-32 23.9-1 1.7 6.4 11.2 6.8 11.4q0.2 0.1 1-0.3c0 0-5.9-8.2-5.4-10.4 0.5-2.2 23-14.5 30.7-23.4z"/>
			</g>
			<g id="&lt;Group&gt;">
				<path id="&lt;Path&gt;" class="s4" d="m129 186.8c0 0-52.4-31.4-57.3-29.2-4.8 2.2-15.7 21.1-13.8 23.7 2 2.7 41 18.2 71.1 5.5z"/>
				<path id="&lt;Path&gt;" class="s5" d="m71.7 157.6c-1 0.5-2.4 1.8-3.9 3.6 5-4 33.8 13.1 40.7 16.4 5.2 2.5 14.2 7.6 18.3 10.1q1.1-0.4 2.2-0.9c0 0-52.4-31.4-57.3-29.2z"/>
			</g>
			<g id="&lt;Group&gt;">
				<path id="&lt;Path&gt;" class="s4" d="m62.1 115.9c0 0 24.1-12.9 28.9-9.6 4.9 3.3 12.1 16.7 22 19.3 9.8 2.6 38.6-10.5 40.8-8.6 2.2 2 15.1 13 15.1 16.3 0 3.3-37.2 33.5-46.9 33.1-9.7-0.4-72-37.3-59.9-50.5z"/>
				<path id="&lt;Path&gt;" class="s5" d="m168.9 133.3c0-1.5-2.7-4.6-5.8-7.7q0 0 0 0c2.5 9-32.6 36.3-39.6 37.7-7 1.5-54.2-32.6-58.3-39.6-2-3.4-2.3-6.2-2.1-8.3-0.7 0.4-1 0.5-1 0.5-12.1 13.2 50.2 50.1 59.9 50.5 9.7 0.4 46.9-29.8 46.9-33.1z"/>
			</g>
			<g id="&lt;Group&gt;">
				<path id="&lt;Path&gt;" class="s4" d="m20.1 143c0 0 8.2 17.7 22.2 27.5 0 0 12-18.9 8.2-24.7-3.8-5.9-29.4-6.2-30.4-2.8z"/>
				<path id="&lt;Path&gt;" class="s5" d="m38.2 167.2q2 1.8 4.1 3.3c0 0 12-18.9 8.2-24.7-0.7-1.1-2.2-2-4.2-2.8 2.8 6.1-8.1 24.2-8.1 24.2z"/>
			</g>
			<g id="&lt;Group&gt;">
				<path id="&lt;Path&gt;" class="s4" d="m12.7 81.4c0 0-5.8 23.7 1.3 45.2 0 0 24 9.1 28.2 5.4 4.2-3.6-17.1-58.5-29.5-50.6z"/>
				<path id="&lt;Path&gt;" class="s5" d="m22 84.3c2.8 3.1 19.1 39.6 16.2 43.5-2.5 3.3-19.8-2-25-3.7q0.4 1.3 0.8 2.5c0 0 24 9.1 28.2 5.4 3.3-2.8-8.8-36.5-20.2-47.7z"/>
			</g>
			<g id="&lt;Group&gt;">
				<path id="&lt;Path&gt;" class="s4" d="m95.1 77.2c-2.3-7.2-52.7-7.5-54 2.9 0 0 8 29.1 13.5 29.8 5.6 0.6 42.9-25.5 40.5-32.7z"/>
				<path id="&lt;Path&gt;" class="s5" d="m91.7 74.6c0 0 1.6 4.6-1.4 7.5-2.9 2.7-30.8 24.7-41.1 20.9 1.8 3.9 3.7 6.7 5.4 6.9 5.6 0.6 42.9-25.5 40.5-32.7-0.3-1-1.5-1.9-3.4-2.6z"/>
			</g>
			<g id="&lt;Group&gt;">
				<path id="&lt;Path&gt;" class="s4" d="m35 41.9c0 0-15.1 14.6-19.5 31.9 0 0 21.4 2.4 25-2.7 3.6-5.2-1.6-30.7-5.5-29.2z"/>
				<path id="&lt;Path&gt;" class="s5" d="m35 41.9c0 0-0.4 0.4-1.1 1.1 1.1 4.5 6.6 20.6 3.2 25.2-3.2 4.2-15.9 3.6-20.9 3.2q-0.4 1.2-0.7 2.4c0 0 21.4 2.4 25-2.7 3.6-5.2-1.6-30.7-5.5-29.2z"/>
			</g>
		</g>
		<g id="&lt;Group&gt;" style="opacity: .5">
			<path id="&lt;Path&gt;" class="s6" d="m70 29.2c0 0-25.2-1.4-30.1 24.1-4.9 25.5 21.6 23.6 21.6 23.6 0 0 17.5 1.8 21.7-22.8 4.2-24.6-13.2-24.9-13.2-24.9z"/>
			<path id="&lt;Path&gt;" class="s6" d="m34.7 75.5c0 0-10.7-0.6-12.8 10.3-2.1 10.9 9.3 10 9.3 10 0 0 7.4 0.8 9.2-9.7 1.8-10.5-5.7-10.6-5.7-10.6z"/>
			<path id="&lt;Path&gt;" class="s6" d="m54.4 79.5c0 0-6.3-0.3-7.6 6.1-1.2 6.4 5.5 5.9 5.5 5.9 0 0 4.4 0.4 5.4-5.7 1.1-6.2-3.3-6.3-3.3-6.3z"/>
		</g>
		<g id="&lt;Group&gt;" style="opacity: .5">
			<path id="&lt;Path&gt;" class="s7" d="m91.9 162.4c-25.9-4.3-52.1-28.9-56.2-9.6 0 0 13.7 23.2 54.7 31.8 41 8.6 63.6-17.1 61.3-24.3-2.3-7.1-33.9 6.5-59.8 2.1z"/>
			<path id="&lt;Path&gt;" class="s7" d="m183.6 81.9c-4.2-21.9-25-32.8-25-32.8-14 2 4.6 19.2 9.4 31.6 4.9 12.3-8.3 36.1-1.9 40.5 6.3 4.3 21.7-17.3 17.5-39.3z"/>
		</g>
		<g id="&lt;Group&gt;">
			<path id="&lt;Path&gt;" class="s8" d="m7.6 96.9c-0.9 13.5 2.9 28.2 4.8 34.5 2 6.4 3.1 5.2 3.1 5.2-16.9-42.5 2.4-75.8 2.4-75.8-3.4-1.2-9.3 22.7-10.3 36.1z"/>
			<path id="&lt;Path&gt;" class="s8" d="m186.6 67.4c-2.1-5.1-8.8-19.6-14.7-25.1 0 0-8.5-9.8-14.4-14.3-6-4.4-14.6-10.1-15.5-8.6 0 0 33.9 16.4 45.6 53.2 0 0 1.1-0.2-1-5.2z"/>
		</g>
	</g>
</svg>