<svg version="1.2" xmlns="http://www.w3.org/2000/svg" viewBox="0 0 200 200" width="200" height="200">
	<title>planet2</title>
	<style>
		.s0 { fill: #da634a } 
		.s1 { fill: #c95947 } 
		.s2 { fill: #b74d42 } 
		.s3 { fill: #a5433d } 
		.s4 { fill: #ffffff } 
	</style>
	<g id="&lt;Group&gt;">
		<g id="&lt;Group&gt;">
			<path id="&lt;Path&gt;" fill-rule="evenodd" class="s0" d="m99.7 198c-54.8 0-99-44.3-99-99 0-54.8 44.2-99 99-99 54.7 0 98.9 44.2 98.9 99 0 54.7-44.2 99-98.9 99z"/>
			<path id="&lt;Path&gt;" class="s1" d="m174.2 33.5c-10.7 16.5-32.3 36.8-74 38.4-44.3 1.8-71.7-11.9-86-22.4-8.4 14.5-13.2 31.4-13.2 49.5 0 54.7 44.3 99 98.9 99 54.7 0 99-44.3 99-99 0-25.1-9.3-48-24.7-65.5z"/>
			<path id="&lt;Path&gt;" class="s2" d="m99.9 141.4c-57-1.4-87-29.6-99.2-45q0 1.3 0 2.6c0 54.7 44.3 99 99 99 53.3 0 96.8-42.2 98.9-95.1-16.3 16.7-48 39.7-98.7 38.5z"/>
		</g>
		<g id="&lt;Group&gt;">
			<path id="&lt;Path&gt;" class="s3" d="m13.7 47.7c-8.8 14.3-11.8 31.7-11.8 31.7-2.8 12.5-2 28.5-0.9 35.5 1 7.1 2.2 6.3 2.2 6.3-9.5-53.8 21-86.3 21-86.3 0 0-1.8-1.4-10.5 12.8z"/>
			<path id="&lt;Path&gt;" class="s3" d="m195.7 70.2c-3.8-9.8-9.6-25.8-18.5-35.1-8.9-9.3-21.9-21.8-24-19.4 0 0 50.8 29.1 44.7 95.7 0 0 2 0.1 2.1-7.7 0.1-7.8-0.6-23.7-4.3-33.5z"/>
		</g>
		<g id="&lt;Group&gt;" style="opacity: .5">
			<path id="&lt;Path&gt;" class="s3" d="m41.2 43.4c1.6-0.9 11.8 3.8 21.6 0 9.7-3.8 18.2-22.2 16.7-26.3-1.6-4.1-28.7-3.6-45.1 11.4-16.3 14.9-14.3 30-14.3 30 9.9 11.4 19.5-14.1 21.1-15.1z"/>
			<path id="&lt;Path&gt;" class="s3" d="m45 118.1c-7.9-11.8-23.3-16.2-26.5-12.5 0 0-9.6 7.1-6.4 26.6 3.1 19.6 22 21.6 25.3 19.1 3.3-2.5 15.4-21.4 7.6-33.2z"/>
			<path id="&lt;Path&gt;" class="s3" d="m109.5 178.2c-14.5-1.4-20.8-23.8-35.2-27.6-14.5-3.8-26.7 2.3-30.3 15.3-3.5 13 33.8 27.9 60.5 28.1 26.7 0.3 45.6-15.1 45.6-15.1-1-5.2-26.2 0.7-40.6-0.7z"/>
			<path id="&lt;Path&gt;" class="s3" d="m188.4 108.7c-2.9-7.4-33.4-10.7-64.3-3.5-30.9 7.2-33.5 44.1-33.5 44.1 4.4 9.7 29-13.2 38.9-14.3 10-1.1 34.8 18.1 44.2 17.1 9.5-0.9 17.5-36.1 14.7-43.4z"/>
			<path id="&lt;Path&gt;" class="s3" d="m51.3 99.8c1.5 5.7 13.5 11.8 22.3 7.6 8.7-4.3 11.8-28.4 3.5-28.9 0 0-27.2 15.6-25.8 21.3z"/>
			<path id="&lt;Path&gt;" class="s3" d="m105.7 80.2c4.9 5.2 66.6-27.7 69.6-32.9 3.1-5.2-2.5-16.6-24.3-29.7-21.8-13.2-49.8-6.2-49.8-6.2-13.3 10.9 8.7 44.7 8.7 48 0 3.3-9.2 15.6-4.2 20.8z"/>
		</g>
		<g id="&lt;Group&gt;" style="opacity: .3">
			<path id="&lt;Path&gt;" class="s4" d="m82.9 21.5c0 0-25.7-8.7-38.2 16.3-12.4 25.1 15.7 30.7 15.7 30.7 0 0 17.6 7 29-17.3 11.5-24.3-6.5-29.7-6.5-29.7z"/>
			<path id="&lt;Path&gt;" class="s4" d="m33 59.3c0 0-11-3.7-16.3 7-5.3 10.7 6.6 13.1 6.6 13.1 0 0 7.6 2.9 12.4-7.4 4.9-10.4-2.7-12.7-2.7-12.7z"/>
			<path id="&lt;Path&gt;" class="s4" d="m52.2 69.2c0 0-6.5-2.2-9.6 4.1-3.1 6.3 3.9 7.7 3.9 7.7 0 0 4.4 1.7 7.3-4.4 2.9-6.1-1.6-7.4-1.6-7.4z"/>
		</g>
	</g>
</svg>