<svg version="1.2" xmlns="http://www.w3.org/2000/svg" viewBox="0 0 200 200" width="200" height="200">
	<title>planet4</title>
	<style>
		.s0 { opacity: .5;fill: #bed991 } 
		.s1 { fill: #bed991 } 
		.s2 { fill: #b0c687 } 
		.s3 { fill: #a1b27d } 
		.s4 { fill: #93a072 } 
		.s5 { fill: #848e65 } 
		.s6 { fill: #a3b57c } 
		.s7 { fill: #ffffff } 
	</style>
	<g id="&lt;Group&gt;">
		<path id="&lt;Path&gt;" fill-rule="evenodd" class="s0" d="m100 165.9c-41.5 0-75-33.5-75-75 0-41.5 33.5-75 75-75 41.5 0 75.1 33.5 75.1 75 0 41.5-33.6 75-75.1 75z"/>
		<g id="&lt;Group&gt;">
			<path id="&lt;Path&gt;" fill-rule="evenodd" class="s1" d="m100 160.6c-38.5 0-69.7-31.1-69.7-69.7 0-38.6 31.2-69.7 69.7-69.7 38.6 0 69.8 31.1 69.8 69.7 0 38.6-31.2 69.7-69.8 69.7z"/>
			<path id="&lt;Path&gt;" class="s2" d="m140 33.8c-3.7 15.3-14.5 35.8-45.1 42.2-31.5 6.6-50.9-0.5-61.1-6.8-2.3 6.8-3.5 14.1-3.5 21.7 0 38.5 31.2 69.7 69.7 69.7 38.5 0 69.8-31.2 69.8-69.7 0-23.6-11.8-44.5-29.8-57.1z"/>
			<path id="&lt;Path&gt;" class="s3" d="m162.3 59.5c-1.2 21.9-10.7 52.2-52.1 59.4-45.6 8-68.9-6.8-79-17 5.3 33.3 34.1 58.7 68.8 58.7 38.5 0 69.8-31.2 69.8-69.7 0-11.3-2.7-22-7.5-31.4z"/>
		</g>
		<g id="&lt;Group&gt;">
			<path id="&lt;Path&gt;" class="s4" d="m37.3 60.5c-1.7-1.2-7.1 10.2-7.9 25.7-0.8 15.4 2.3 24.6 4.9 31 2.6 6.4 3.7 5.5 3.7 5.5-16.2-33.7-0.7-62.2-0.7-62.2z"/>
			<path id="&lt;Path&gt;" class="s4" d="m169.2 74.5c-1.5-6.1-7.3-20.8-12.6-26.7-5.3-5.9-25.4-25.7-30-21.4 0 0 35.8 13.6 42.6 55.3 0 0 1.4-1.1 0-7.2z"/>
		</g>
		<g id="&lt;Group&gt;">
			<path id="&lt;Path&gt;" class="s3" d="m113.9 51.8c0 0-18.3 1.9-16.7 14.2 1.5 12.4 36.6-4.2 16.7-14.2z"/>
			<path id="&lt;Path&gt;" class="s3" d="m61.8 49.5c0 0-7.7 1.9-5.8 6.4 1.8 4.6 12.4-2.5 5.8-6.4z"/>
			<path id="&lt;Path&gt;" class="s3" d="m134.3 83.9c0 0-11 17.6 0 21.8 10.9 4.2 19.3-23.2 0-21.8z"/>
			<path id="&lt;Path&gt;" class="s3" d="m73.1 81.9c0 0-15 5-11.1 11.3 3.9 6.3 20.7-5.6 11.1-11.3z"/>
			<path id="&lt;Path&gt;" class="s4" d="m109.4 121.7c0 0-10.1 2.7-6.9 8.1 3.3 5.4 15.2-4.3 6.9-8.1z"/>
		</g>
		<g id="&lt;Group&gt;">
			<g id="&lt;Group&gt;">
				<path id="&lt;Path&gt;" class="s3" d="m79.4 155c0 0 12.9-0.8 26 5.4 0 0-4 18.4-18 15.3-14-3.2-8-20.7-8-20.7z"/>
				<path id="&lt;Path&gt;" class="s4" d="m87.4 175.7c14 3.1 18-15.3 18-15.3-3.9-1.8-7.7-3.1-11.2-3.9 0 0 7.9 2.9 7.7 6.2-0.3 3.2-7.4 13.1-14.5 13z"/>
				<path id="&lt;Path&gt;" class="s5" d="m81.8 172.1c0 0 1.9-1.5 5.6-0.4 3.7 1.1 2.7 4 2.7 4 0 0-5.6-0.2-8.3-3.6z"/>
			</g>
			<path id="&lt;Path&gt;" class="s0" d="m85.9 175.7l-2.7-0.7c0 0-1.3 4.7-3.5 5.1-2.2 0.4-6.6 0.2-6.8 3.6-0.3 3.4 3.6 2.4 3.6 2.4 0 0-4.7 3.8-1.6 6.8 3.1 3.1 7.3-5.3 7.3-5.3 0 0 1.6 3.8 4.7 1.7 3-2.2-2.7-9.7-1-13.6z"/>
			<path id="&lt;Path&gt;" class="s0" d="m74.6 194.8c0 0-2.3 2.8 0 3.5 2.4 0.6 2.4-3.7 0-3.5z"/>
		</g>
		<g id="&lt;Group&gt;">
			<g id="&lt;Group&gt;">
				<path id="&lt;Path&gt;" class="s1" d="m57.6 36.5c0 0 19.4-9.1 19.4-9.6 0-0.6-4.9-13.8-15.6-10-10.8 3.7-6.7 17.8-3.8 19.6z"/>
				<path id="&lt;Path&gt;" class="s2" d="m58.3 32.1c-1.8-2.5-3.1-12.7 2.7-15.1-10.3 3.9-6.2 17.8-3.4 19.5 0 0 6.2-2.9 11.5-5.5 0 0-8.6 4.2-10.8 1.1z"/>
				<path id="&lt;Path&gt;" class="s6" d="m57.4 19.7c0 0 1 1.1 4.2 0 3.3-1.1 2.3-3.3 2.3-3.3 0 0-3.7 0.3-6.5 3.3z"/>
			</g>
			<path id="&lt;Path&gt;" class="s0" d="m59.1 17c0 0 2.2-0.6 2.2-0.8 0-0.2-1.2-4.1-1.1-5.5 0 0 3.1-1.3 2.5-3.9-0.6-2.7-3.6-0.9-3.6-0.9 0 0-1.4-5.2-5.9-3.6-4.6 1.5-0.5 5.1-0.5 5.1 0 0-3.8 1.3-2.7 4.4 1.1 3.1 6.6 1 6.6 1 0 0 1.9 4.4 2.5 4.2z"/>
			<path id="&lt;Path&gt;" class="s0" d="m48.1 5.5c0 0-2.3 0.6-1.4 2.1 0.9 1.5 3.2-1 1.4-2.1z"/>
		</g>
		<g id="&lt;Group&gt;" style="opacity: .3">
			<path id="&lt;Path&gt;" class="s7" d="m88.9 32.9c0 0-18.2-6.1-26.9 11.5-8.8 17.7 11 21.7 11 21.7 0 0 12.4 4.8 20.5-12.3 8-17.1-4.6-20.9-4.6-20.9z"/>
			<path id="&lt;Path&gt;" class="s7" d="m53.7 59.6c0 0-7.8-2.7-11.5 4.9-3.7 7.5 4.7 9.2 4.7 9.2 0 0 5.3 2.1 8.7-5.2 3.5-7.3-1.9-8.9-1.9-8.9z"/>
			<path id="&lt;Path&gt;" class="s7" d="m67.2 66.5c0 0-4.5-1.5-6.7 2.9-2.2 4.4 2.7 5.4 2.7 5.4 0 0 3.1 1.3 5.2-3 2-4.3-1.2-5.3-1.2-5.3z"/>
		</g>
	</g>
</svg>