<svg version="1.2" xmlns="http://www.w3.org/2000/svg" viewBox="0 0 200 200" width="200" height="200">
	<title>planet6</title>
	<style>
		.s0 { fill: #ffc149 } 
		.s1 { fill: #fcb73d } 
		.s2 { fill: #f4a931 } 
		.s3 { fill: #ef9d26 } 
		.s4 { fill: #f9e2b9 } 
		.s5 { fill: #ffffff } 
		.s6 { fill: #dd8e26 } 
	</style>
	<g id="&lt;Group&gt;">
		<g id="&lt;Group&gt;">
			<path id="&lt;Path&gt;" class="s0" d="m177.9 100.4c-0.3 43.1-35.4 77.7-78.4 77.4-43.1-0.3-77.7-35.4-77.4-78.4 0.2-43 35.4-77.7 78.4-77.4 43 0.3 77.7 35.4 77.4 78.4z"/>
			<path id="&lt;Path&gt;" class="s1" d="m121 24.9c0.6 15.3-2.7 41.8-32 50.9-28.6 8.9-51 2.7-62.4-2.2-2.9 8.1-4.5 16.8-4.5 25.8-0.3 43 34.3 78.1 77.4 78.4 43 0.3 78.1-34.3 78.4-77.4 0.2-35.9-23.9-66.3-56.9-75.5z"/>
			<path id="&lt;Path&gt;" class="s2" d="m159.4 49.9c1.5 22.1-3.7 57.7-48.3 71.6-46 14.2-74.7 0.3-88.2-9.9 5.5 37.5 37.6 66.3 76.5 66.6 43.1 0.3 78.2-34.4 78.5-77.4 0.1-19.4-6.9-37.2-18.5-50.9z"/>
		</g>
		<g id="&lt;Group&gt;">
			<path id="&lt;Path&gt;" class="s3" d="m21.3 93c-1.4 12 2.2 26.6 3.3 31 1.1 4.4 2.5 4 2.5 4-13.5-38.1 5.1-66.5 5.1-66.5-3.3-0.9-9.5 19.5-10.9 31.5z"/>
			<path id="&lt;Path&gt;" class="s3" d="m165.2 55c-3.5-4.6-12.4-14.8-17.8-18.3 0 0-12.2-8.9-21.6-11.5-9.4-2.6-12-3.5-12.6-2.1 0 0 35.7 5.3 54 37.6 0 0 1.5-1.1-2-5.7z"/>
		</g>
		<g id="&lt;Group&gt;" style="opacity: .5">
			<path id="&lt;Path&gt;" class="s4" d="m104.6 86.3c1.1 1.1 17.7-7.5 20.1-24.2 2.3-16.8-1.9-35.2-1.9-35.2-17.8-6.1-35.8-2.3-35.8-2.3-2 1.9 10.5 8.3 15.6 24.9 5.1 16.6 0.9 35.7 2 36.8z"/>
			<path id="&lt;Path&gt;" class="s4" d="m57.1 90.5c18.6 8.2 8.3 24.4 3.6 23-4.6-1.3-6.4-7.3-8.7-6.2-2.2 1.1-7 12.8 9 18.1 16 5.3 28.1-9.1 28.2-24.2 0.2-21.2-25.3-49.8-61.3-29.9 0 0-7 16.1-5.1 38 0 0 15.8-27 34.3-18.8z"/>
			<path id="&lt;Path&gt;" class="s4" d="m38 144.2c0 0 5.1 9.5 12.9 14.2 0 0 7-20.7 5.7-21.7-1.2-0.9-18.8 5.7-18.6 7.5z"/>
			<path id="&lt;Path&gt;" class="s4" d="m56.6 162.8c0 0 13.9 10.7 30.5 13 0 0 13.2-28.6 8.7-55.9 0 0-21.8 33.1-39.2 42.9z"/>
			<path id="&lt;Path&gt;" class="s4" d="m150.9 88.3c13.4 2.8 18.5-17 12.4-18.4-6.1-1.3 0.8 9.9-5.7 11-6.5 1-13.3-12.8-8.4-18.9 4.9-6.1 14.2-4.9 14.2-4.9-8.9-13.9-24.4-22.7-24.4-22.7-18.2 22.2-1.5 51 11.9 53.9z"/>
			<path id="&lt;Path&gt;" class="s4" d="m113 123.5c6.5-1.1 8.6-6.2 13.5-18.3 4.8-12 12.3-11.1 15.3-9.2 3 1.9 2.1 9 2.1 9 7.1-3.2-0.7-21.4-13.4-20-12.6 1.5-5.4 26.7-16 30.4-10.7 3.6-17.1 1.1-17.1 1.1-3.4 3.9 9.1 8.1 15.6 7z"/>
			<path id="&lt;Path&gt;" class="s4" d="m149.2 107.7c-8.4 0.2-16.6 10.9-10 15.9 0 0 2.5-9.8 11.1-7.9 8.5 2 18.6 18.4 7.4 32.6 0 0 9.4-5 10.4-17.4 1.1-12.4-10.5-23.4-18.9-23.2z"/>
			<path id="&lt;Path&gt;" class="s4" d="m175.5 85.8c0 0-12.4 1-13 12.9-0.5 11.9 12.8 16.4 12.8 16.4 3.6-14.6 0.2-29.3 0.2-29.3z"/>
			<path id="&lt;Path&gt;" class="s4" d="m129.1 154.3c-4-8.9 7.8-10.5 8.4-7.9 0 0-2.8 2.4-0.9 4.1 1.9 1.6 5.8-2.4 4.3-6.6-1.5-4.2-13-13.6-23.1-5.5-10.1 8.1-14.1 30.1-7.4 37.5 0 0 19.9-2.1 31.5-12 0 0-8.9-0.8-12.8-9.6z"/>
			<path id="&lt;Path&gt;" class="s4" d="m67.2 44.7c6.5-6.1 3.7-14.8 3.7-14.8-13.4 4.4-21.6 13.9-21.6 13.9 0 0 11.4 7.1 17.9 0.9z"/>
		</g>
		<g id="&lt;Group&gt;" style="opacity: .3">
			<path id="&lt;Path&gt;" class="s5" d="m94 29.2c0 0-20.2-7-30.2 12.6-9.9 19.7 12.2 24.3 12.2 24.3 0 0 13.8 5.6 23-13.5 9.1-19-5-23.4-5-23.4z"/>
			<path id="&lt;Path&gt;" class="s5" d="m54.5 58.7c0 0-8.7-3-12.9 5.4-4.2 8.4 5.2 10.4 5.2 10.4 0 0 5.9 2.3 9.8-5.8 3.9-8.1-2.1-10-2.1-10z"/>
			<path id="&lt;Path&gt;" class="s5" d="m69.5 66.6c0 0-5-1.8-7.5 3.2-2.5 4.9 3 6.1 3 6.1 0 0 3.5 1.3 5.8-3.4 2.3-4.8-1.3-5.9-1.3-5.9z"/>
		</g>
		<g id="&lt;Group&gt;">
			<path id="&lt;Path&gt;" class="s6" d="m22.1 95.9c0 0-10.5-1-10.9 5.4-0.3 6.5 21.3 17.5 93.8 12.7 72.4-4.8 103.4-19.2 72-23.7l0.3 1.9c0 0 7.4 0.6 7.4 3.3 0 2.8-27.5 11.5-84.3 16.6-56.8 5-101.7-9-78.3-14z"/>
			<path id="&lt;Path&gt;" class="s6" d="m22.5 89.8c0 0-22.8 1.7-22.5 12.9 0.3 11.3 15.3 25.3 104.6 25.3 89.2 0 122.7-47.1 71.1-46.4l0.3 1.4c0 0 20.6 1.5 20.6 9.7-0.1 8.1-35.8 29.6-93.4 31-57.6 1.3-127.4-14.5-81.7-32.3z"/>
		</g>
	</g>
</svg>