<svg version="1.2" xmlns="http://www.w3.org/2000/svg" viewBox="0 0 512 512" width="512" height="512">
	<title>suit</title>
	<style>
		.s0 { fill: #87dfd6 } 
		.s1 { fill: #dff5f2 } 
		.s2 { fill: #4a7dba } 
		.s3 { fill: #000000 } 
		.s4 { fill: #ffff00;stroke: #000000;stroke-linecap: round;stroke-linejoin: round;stroke-width: 15 } 
		.s5 { fill: #4a7dba;stroke: #000000;stroke-linecap: round;stroke-linejoin: round;stroke-width: 15 } 
		.s6 { fill: #00ff00;stroke: #000000;stroke-linecap: round;stroke-linejoin: round;stroke-width: 15 } 
	</style>
	<g id="fill">
		<path class="s0" d="m100.2 500.9h-44.5v-200.4c0-24.6 19.9-44.5 44.5-44.5z"/>
		<path class="s0" d="m411.8 256v244.9h44.5v-111.3-66.8-22.3c0-24.6-19.9-44.5-44.5-44.5z"/>
		<path class="s0" d="m382 100.2c4.9 13.9 7.6 28.9 7.6 44.5v44.5h7.8c14.4 0 26.1-11.7 26.1-26.1v-36.8c0-14.4-11.7-26.1-26.1-26.1z"/>
		<path class="s0" d="m130 100.2c-4.9 13.9-7.6 28.9-7.6 44.5v44.5h-7.8c-14.4 0-26.1-11.7-26.1-26.1v-36.8c0-14.4 11.7-26.1 26.1-26.1z"/>
		<path class="s1" d="m389.6 256v-111.3c0-24.3-6.5-47.1-17.9-66.8-5.9-10.1-13-19.4-21.3-27.6-24.1-24.2-57.5-39.2-94.4-39.2-49.4 0-92.6 26.9-115.7 66.8-11.4 19.7-17.9 42.5-17.9 66.8v111.3h-22.2v244.9h311.6v-244.9z"/>
		<path class="s2" d="m310.9 211.5h-109.8c-18.9 0-34.1-15.3-34.1-34.2v-54.3c0-14.5 9-27.3 22.7-32.2 17-6.1 41.7-12.9 66.3-12.9 24.6 0 49.3 6.8 66.4 12.9 13.6 4.9 22.6 17.7 22.6 32.2v54.3c0 18.9-15.2 34.2-34.1 34.2z"/>
		<path fill-rule="evenodd" class="s2" d="m211.5 456.3h-66.4-44.9v44.6h311.6v-44.6z"/>
	</g>
	<g id="outlines">
		<path class="s3" d="m465.6 350q-0.6-0.9-1.4-1.7-0.8-0.8-1.7-1.4-0.9-0.6-1.9-1-1-0.4-2.1-0.6c-1.4-0.3-2.9-0.3-4.3 0q-1.1 0.2-2.1 0.6-1 0.4-1.9 1-1 0.6-1.7 1.4-0.8 0.8-1.4 1.7-0.6 0.9-1 1.9-0.5 1-0.7 2.1-0.2 1.1-0.2 2.2 0 1.1 0.2 2.1 0.2 1.1 0.7 2.1 0.4 1 1 2 0.6 0.9 1.4 1.6 0.7 0.8 1.7 1.4 0.9 0.6 1.9 1 1 0.5 2.1 0.7 1.1 0.2 2.1 0.2c3 0 5.8-1.2 7.9-3.3q0.8-0.7 1.4-1.6 0.6-1 1-2 0.4-1 0.7-2.1 0.2-1 0.2-2.1 0-1.1-0.2-2.2-0.3-1.1-0.7-2.1-0.4-1-1-1.9z"/>
		<path class="s3" d="m411.8 244.9h-11.1v-44.7c19-1.7 33.9-17.7 33.9-37.1v-36.8c0-20.5-16.7-37.3-37.2-37.3h-7.8q-3.6-8.6-8.3-16.7c-6.3-10.9-14-20.9-23-29.9-27.3-27.3-63.6-42.4-102.3-42.4-51.5 0-99.5 27.7-125.3 72.3q-4.7 8.1-8.3 16.7h-7.8c-20.5 0-37.2 16.8-37.2 37.3v36.8c0 19.4 14.9 35.4 33.9 37.1v44.7h-11.1c-30.7 0-55.7 24.9-55.7 55.6v200.4c0 6.1 5 11.1 11.2 11.1h44.5 311.6 44.5c6.2 0 11.2-5 11.2-11.1v-111.3c0-6.2-5-11.2-11.2-11.2-6.1 0-11.1 5-11.1 11.2v100.1h-22.2v-33.4-187.3c12.9 4.6 22.2 17 22.2 31.5v22.3c0 6.1 5 11.1 11.1 11.1 6.2 0 11.2-5 11.2-11.1v-22.3c0-30.7-25-55.6-55.7-55.6zm-15-133.6h0.6c8.2 0 15 6.7 15 15v36.8c0 7.1-5 13.1-11.7 14.6v-33q0-2.3-0.1-4.6 0-0.5 0-1.1-0.1-1.7-0.2-3.5 0-0.5-0.1-1.1-0.1-1.8-0.3-3.6 0-0.4-0.1-0.9-0.2-1.9-0.4-3.8-0.1-0.4-0.1-0.7-0.3-2.1-0.6-4.1 0-0.2-0.1-0.4-0.8-4.8-1.9-9.6zm-297.2 51.8v-36.8c0-8.3 6.8-15 15-15h0.6q-1.1 4.8-1.9 9.6-0.1 0.2-0.1 0.4-0.3 2-0.6 4.1 0 0.3-0.1 0.7-0.2 1.9-0.4 3.8-0.1 0.5-0.1 0.9-0.2 1.8-0.3 3.6-0.1 0.6-0.1 1.1-0.1 1.8-0.2 3.5 0 0.6 0 1.1-0.1 2.3-0.1 4.6v33c-6.7-1.5-11.7-7.5-11.7-14.6zm34 26.1v-44.5q0-2.4 0.1-4.7 0-0.8 0-1.6 0.1-1.5 0.2-3 0.1-1 0.2-2 0.1-1.4 0.3-2.7 0.1-1 0.2-2 0.3-2.1 0.6-4.1 0.2-1.3 0.5-2.5 0.2-1 0.4-2 0.2-1.3 0.5-2.5 0.2-1.1 0.5-2.1 0.3-1.2 0.6-2.3 0.5-2 1.1-3.9 0.2-0.9 0.5-1.7 0.5-1.5 1-3c2.5-7.3 5.8-14.4 9.6-21.1 21.9-37.8 62.5-61.2 106.1-61.2 32.7 0 63.5 12.7 86.6 35.8 7.6 7.6 14.1 16.2 19.5 25.4 3.8 6.7 7.1 13.8 9.6 21.1q0.5 1.5 1 3 0.2 0.8 0.5 1.5 0.6 2 1.1 4.1 0.3 1.1 0.6 2.3 0.3 1 0.5 2.1 0.3 1.2 0.5 2.5 0.2 1 0.4 2.1 0.3 1.2 0.5 2.4 0.3 2 0.6 4.1 0.1 1 0.2 2 0.2 1.3 0.3 2.7 0.1 1 0.2 2 0.1 1.5 0.2 3 0 0.8 0 1.6 0.1 2.3 0.1 4.7v44.5 55.7h-244.8c0 0 0-55.7 0-55.7zm-66.8 111.3c0-14.5 9.3-26.9 22.2-31.5v187.3 33.4h-22.2zm44.5 167h33.8c6.1 0 11.1-5 11.1-11.1 0-6.2-5-11.2-11.1-11.2h-33.8v-178.1h11.1 267.2 11.1v178.1h-189.2c-6.2 0-11.2 5-11.2 11.2 0 6.1 5 11.1 11.2 11.1h189.2v22.3h-289.4z"/>
		<path class="s3" d="m326.1 80.3c-17.4-6.2-43.6-13.5-70.1-13.5-26.5 0-52.7 7.3-70.1 13.5-18 6.4-30.1 23.6-30.1 42.7v54.3c0 25 20.3 45.3 45.3 45.3h109.8c25 0 45.3-20.3 45.3-45.3v-54.3c0-19.1-12.1-36.3-30.1-42.7zm7.8 97c0 12.7-10.3 23-23 23h-109.8c-12.7 0-23-10.3-23-23v-54.3c0-9.7 6.1-18.4 15.3-21.7 15.7-5.6 39.3-12.3 62.6-12.3 23.3 0 46.9 6.7 62.6 12.3 9.2 3.3 15.3 12 15.3 21.7z"/>
		<path class="s3" d="m184.5 447.1q-1-0.6-2-1-1-0.4-2.1-0.7c-1.4-0.2-2.9-0.2-4.3 0q-1.1 0.3-2.1 0.7-1 0.4-1.9 1-0.9 0.6-1.7 1.4-0.8 0.7-1.4 1.7-0.6 0.9-1 1.9-0.4 1-0.6 2.1-0.3 1.1-0.2 2.1-0.1 1.1 0.2 2.2 0.2 1.1 0.6 2.1 0.4 1 1 1.9 0.6 0.9 1.4 1.7 0.8 0.8 1.7 1.4 0.9 0.6 1.9 1 1 0.4 2.1 0.7 1.1 0.2 2.2 0.2 1.1 0 2.1-0.2 1.1-0.3 2.1-0.7 1-0.4 2-1 0.9-0.6 1.6-1.4c2.1-2.1 3.3-4.9 3.3-7.9 0-2.9-1.2-5.8-3.3-7.8q-0.7-0.8-1.6-1.4z"/>
	</g>
	<g id="buttons">
		<path id="battery" fill-rule="evenodd" class="s4" d="m300.5 300.5h66.8v44.5h-66.8z"/>
		<path id="oxygen" fill-rule="evenodd" class="s5" d="m300.5 374.5h66.8v44.5h-66.8z"/>
		<path id="state" fill-rule="evenodd" class="s6" d="m149.5 324c-10.2 0-18.5-8.3-18.5-18.5 0-10.2 8.3-18.5 18.5-18.5 10.2 0 18.5 8.3 18.5 18.5 0 10.2-8.3 18.5-18.5 18.5z"/>
	</g>
</svg>